<svg viewBox="0 0 1080 1080" xmlns="http://www.w3.org/2000/svg" xml:space="preserve" style="fill-rule:evenodd;clip-rule:evenodd;stroke-linejoin:round;stroke-miterlimit:2"><path style="fill:none" d="M1262.31 0h1080v1080h-1080z" transform="translate(-1262.314)"/><path d="M725.189 673.685c-6.763 17.321-14.689 34.29-20.063 52.032-13.97 46.129-26.816 92.598-40.121 138.929-1.054 3.668-2.193 7.311-3.802 10.962-.528-2.26-1.055-4.658-.469-6.743 1.781-6.33 4.268-12.464 5.979-18.809 3.792-14.056 6.96-28.285 10.965-42.277 5.466-19.094 11.48-38.031 17.24-57.04.433-1.426.664-2.913 1.074-4.346 2.121-7.402 4.142-14.837 6.45-22.181 1.772-5.637 3.955-11.144 5.888-16.733 2.523-7.294 4.98-14.611 7.377-21.661-7.05.734-14.56 1.653-22.094 2.274-20.647 1.703-41.294 3.436-61.962 4.835-8.691.589-17.44.254-26.155.545-12.279.409-24.548 1.209-36.829 1.472-12.101.259-24.213-.04-36.318.086-11.566.121-23.14.262-34.693.789-10.37.472-20.847.709-31.04 2.442-13.806 2.347-28.089 3.45-40.257 11.917-4.598 3.2-8.169 6.447-7.326 12.418 1.528 10.814 3.127 21.622 4.936 32.391 2.004 11.926 4.084 23.845 6.488 35.694 2.21 10.898 5.188 21.643 7.3 32.557 3.43 17.723 6.198 35.574 9.671 53.287a2054.571 2054.571 0 0 0 12.112 57.379c3.726 16.493 8.441 32.772 11.872 49.32 2.392 11.536 8.412 18.786 19.715 21.896 1.137.31 1.93 1.88 2.87 2.88-.013.01-.039.04-.389.06-.813.08-1.277.15-1.74.21-.718-.06-1.435-.13-2.752-.46-6.021-3.73-12.572-6.24-16.531-10.942-3.625-4.304-4.98-10.835-6.411-16.614-4.475-18.06-8.755-36.176-12.668-54.366-8.002-37.206-16.024-74.414-23.45-111.738-5.927-29.792-10.798-59.794-16.557-89.622-1.447-7.493.823-12.868 6.597-16.849 7.806-5.381 16.286-9.6 25.704-11.386 13.314-2.525 26.605-5.338 40.03-7.056 13.313-1.704 26.765-2.516 40.182-3.146 14.62-.685 29.275-.588 43.908-1.049 29.912-.943 59.827-1.844 89.724-3.146 12.758-.555 25.487-1.939 38.201-3.22 5.036-.507 9.996-1.757 14.991-2.668-.919-.927-1.726-1.005-2.515-.916-14.175 1.595-28.312 3.758-42.53 4.696-22.546 1.489-45.14 2.814-67.724 3.024-32.13.3-64.275-.197-96.401-.913-14.422-.322-28.917-1.252-43.196-3.228-24.163-3.345-48.216-7.542-72.245-11.778-11.611-2.046-23.107-4.815-34.569-7.607-6.321-1.539-10.311-7.051-9.573-12.705.622-4.764 1.318-9.597 2.73-14.168 7.903-25.593 15.963-51.138 24.103-76.657 11.228-35.2 22.567-70.365 33.872-105.54 6.723-20.919 13.485-41.825 20.195-62.748 1.071-3.339 2.336-6.786-1.248-9.555 5.422-6.589 13.035-9.461 20.925-10.621 15.43-2.27 30.96-4.121 46.515-5.218 16.911-1.192 33.915-2.139 50.845-1.747 28.064.649 56.234.666 84.004 5.753 5.378.985 10.761 2.335 15.887 4.213 7.425 2.721 13.234 7.59 16.018 14.33 7.111 0 13.889-1.06 20.184.232 11.426 2.343 18.993 10.145 22.88 21.009 12.393 34.645 24.591 69.36 36.773 104.08 2.585 7.368 4.783 14.872 6.925 22.931-8.545 4.829-16.751 9.267-25.216 13.141-3.503 1.604-4.586 2.966-3.606 7.02 6.559 27.15 16.162 53.216 27.514 78.663.762 1.709 3.251 3.545 5.075 3.7 4.084.346 8.254-.331 12.389-.591l-13.58 6.188c.18.906.32 2.02.625 3.088 3.123 10.907-.331 19.35-10.504 24.627-3.628 1.882-7.647 3.008-12.093 4.524-1.051.071-1.498.098-1.944.125l.062.488 1.776-.163M602.285 499.934c-1.506-7.509-2.76-15.079-4.566-22.515-4.674-19.24-9.496-38.446-14.555-57.588-.52-1.968-3.038-3.408-4.628-5.093-1.191 1.974-3.281 3.883-3.43 5.933-1.107 15.271-2.522 30.569-2.546 45.86-.087 54.646.331 109.292.582 163.938.038 8.326.235 16.651.286 24.978.019 3.059 1.188 5.021 4.318 5.756 16.385 3.847 32.679 3.585 48.897-.937 2.898-.808 3.979-2.643 3.438-5.638-.856-4.746-1.484-9.533-2.341-14.28a91664.55 91664.55 0 0 0-25.455-140.414m82.844-71.406 13.185 31.772 1.323-.519c.08-.453.332-.957.215-1.351-5.221-17.657-10.378-35.335-15.919-52.892-.412-1.306-3.602-1.735-5.5-2.572-.478 2.012-1.85 4.336-1.275 5.979 2.242 6.4 5.1 12.584 7.971 19.583m32.904 246.006c-.261-.105-.517-.231-.788-.297-.059-.014-.17.189-.257.292.27.082.541.164 1.045.005Z" style="fill:#26550e;fill-rule:nonzero" transform="translate(-219.204 -11.153)"/><path d="M494.01 1007.99c-.953-.99-1.746-2.56-2.883-2.87-11.303-3.11-17.323-10.36-19.715-21.896-3.431-16.548-8.146-32.827-11.872-49.32a2054.571 2054.571 0 0 1-12.112-57.379c-3.473-17.713-6.241-35.564-9.671-53.287-2.112-10.914-5.09-21.659-7.3-32.557-2.404-11.849-4.484-23.768-6.488-35.694-1.809-10.769-3.408-21.577-4.936-32.391-.843-5.971 2.728-9.218 7.326-12.418 12.168-8.467 26.451-9.57 40.257-11.917 10.193-1.733 20.67-1.97 31.04-2.442 11.553-.527 23.127-.668 34.693-.789 12.105-.126 24.217.173 36.318-.086 12.281-.263 24.55-1.063 36.829-1.472 8.715-.291 17.464.044 26.155-.545 20.668-1.399 41.315-3.132 61.962-4.835 7.534-.621 15.044-1.54 22.094-2.274-2.397 7.05-4.854 14.367-7.377 21.661-1.933 5.589-4.116 11.096-5.888 16.733-2.308 7.344-4.329 14.779-6.45 22.181-.41 1.433-.641 2.92-1.074 4.346-5.76 19.009-11.774 37.946-17.24 57.04-4.005 13.992-7.173 28.221-10.965 42.277-1.711 6.345-4.198 12.479-5.979 18.809-.586 2.085-.059 4.483.255 7.035.044 1.716-.208 3.135-1.031 4.909-1.611 1.592-3.166 2.67-3.608 4.093a488.87 488.87 0 0 0-6.241 21.898c-2.354 9.062-4.201 18.262-6.772 27.258-3.349 11.723-7.393 23.248-10.701 34.982-.97 3.441-.455 7.3-.622 10.968-1.965 9.097-7.325 15.332-15.656 19.42-13.495 6.622-27.93 9.972-42.667 11.352-15.517 1.46-31.165 1.53-47.243 1.78-1.428-4.92-4.716-3.59-7.504-3.11-1.388.24-2.68 1.04-4.336 1.58-.748 0-1.177-.01-1.665-.36-2.16-3.85-3.728-3.18-4.939.28-.853-.11-1.707-.22-2.825-.95-3.353-5.32-7.39-2.67-11.169-2.01Z" style="fill:#26550e;fill-rule:nonzero;stroke:#26550e;stroke-width:1px" transform="translate(-219.204 -11.153)"/><path d="M428.367 143.243c38.589-62.045 124.17-81.132 186.274-35.883 54.194 39.485 72.3 112.403 42.318 172.227-7.499 14.962-17.1 28.544-30.963 39.441-20.173 11.795-41.029 12.132-62.488 7.484-33.478-7.251-60.844-25.601-85.596-48.127-20.048-18.245-35.313-40.225-45.936-65.242-5.837-13.747-10.019-28.088-8.861-43.131.694-9.004 3.432-17.851 5.252-26.769m160.001 17.861c-3.1-1.507-6.056-3.586-9.328-4.405-7.34-1.837-14.901 2.848-17.203 10.067-2.61 8.182 1.418 17.609 9.409 22.022 7.239 3.997 15.675 2.665 20.337-3.213 5.12-6.454 4.295-16.036-2.005-23.255-.218-.25-.46-.478-1.21-1.216Z" style="fill:#5ce54c;fill-rule:nonzero" transform="translate(-219.204 -4.153)"/><path d="M423.432 378.031c3.887 2.651 2.622 6.098 1.551 9.437-6.71 20.923-13.472 41.829-20.195 62.748-11.305 35.175-22.644 70.34-33.872 105.54-8.14 25.519-16.2 51.064-24.103 76.657-1.412 4.571-2.108 9.404-2.73 14.168-.738 5.654 3.252 11.166 9.573 12.705 11.462 2.792 22.958 5.561 34.569 7.607 24.029 4.236 48.082 8.433 72.245 11.778 14.279 1.976 28.774 2.906 43.196 3.228 32.126.716 64.271 1.213 96.401.913 22.584-.21 45.178-1.535 67.724-3.024 14.218-.938 28.355-3.101 42.53-4.696.789-.089 1.596-.011 2.515.916-4.995.911-9.955 2.161-14.991 2.668-12.714 1.281-25.443 2.665-38.201 3.22-29.897 1.302-59.812 2.203-89.724 3.146-14.633.461-29.288.364-43.908 1.049-13.417.63-26.869 1.442-40.182 3.146-13.425 1.718-26.716 4.531-40.03 7.056-9.418 1.786-17.898 6.005-25.704 11.386-5.774 3.981-8.044 9.356-6.597 16.849 5.759 29.828 10.63 59.83 16.557 89.622 7.426 37.324 15.448 74.532 23.45 111.738 3.913 18.19 8.193 36.306 12.668 54.366 1.431 5.779 2.786 12.31 6.411 16.614 3.959 4.702 10.51 7.212 16.171 10.932-7.213-1.67-14.809-3.18-22.065-5.67-4.62-1.59-8.936-4.347-13.028-7.113-5.897-3.986-7.904-10.546-9.745-16.959a16417.57 16417.57 0 0 1-23.891-83.987c-12.119-43.069-23.837-86.253-36.336-129.21-6.736-23.149-14.6-45.975-22.267-68.842-2.105-6.279-4.943-12.404-8.225-18.154-1.479-2.591-4.802-4.187-7.413-6.06-4.796-3.442-10.165-6.251-14.385-10.277-3.605-3.44-5.57-8.234-3.439-13.698.706-1.809.699-3.895 1.303-6.477 1.474-3.305 2.74-5.956 3.835-8.676a1682.722 1682.722 0 0 0 8.766-22.305c4.885-14.945 10.065-29.435 14.324-44.192 1.454-5.037.592-10.743.864-16.499 3.586-7.993 7.319-15.539 10.55-23.294 4.137-9.929 8.014-19.972 11.749-30.06 8.707-23.512 17.362-47.044 25.834-70.642 4.136-11.521 7.863-23.19 11.639-34.837.458-1.414.064-3.106.064-4.669 2.08-2.677 4.16-5.354 6.542-8.148Z" style="fill:#122308;fill-rule:nonzero" transform="translate(-219.204 -11.153)"/><path d="M428.046 143.366c-1.499 8.795-4.237 17.642-4.931 26.646-1.158 15.043 3.024 29.384 8.861 43.131 10.623 25.017 25.888 46.997 45.936 65.242 24.752 22.526 52.118 40.876 85.596 48.127 21.459 4.648 42.315 4.311 62.224-7.27-4.871 4.415-9.562 9.808-15.423 13.15-10.158 5.791-21.04 10.31-32.047 15.066-2.532-1.351-4.584-3.192-6.745-3.331-14.158-.913-28.34-1.458-42.974-2.113-6.591.373-12.809.237-18.82 1.285-3.714.648-8.688-.446-10.732 4.568-28.32-8.962-50.668-26.074-67.937-50.011-15.499-21.482-23.742-45.459-25.205-71.975-1.652-29.931 5.689-57.29 22.197-82.515Z" style="fill:#125d0b;fill-rule:nonzero" transform="translate(-219.204 -4.153)"/><path d="M416.513 386.067c.377 1.675.771 3.367.313 4.781-3.776 11.647-7.503 23.316-11.639 34.837-8.472 23.598-17.127 47.13-25.834 70.642-3.735 10.088-7.612 20.131-11.749 30.06-3.231 7.755-6.964 15.301-10.863 23.158-2.361-.965-4.373-2.087-6.296-3.345-6.569-4.3-13.107-8.648-19.656-12.977 5.381-15.842 10.708-31.703 16.154-47.522 9.355-27.173 18.826-54.306 28.164-81.484 4.914-14.304 19.272-22.739 34.26-19.887 2.277.433 4.514 1.078 7.146 1.737Z" style="fill:#25540e;fill-rule:nonzero" transform="translate(-219.204 -11.153)"/><path d="M761.16 634.649c-4.448.419-8.618 1.096-12.702.75-1.824-.155-4.313-1.991-5.075-3.7-11.352-25.447-20.955-51.513-27.514-78.663-.98-4.054.103-5.416 3.606-7.02 8.465-3.874 16.671-8.312 25.241-12.744 6.415 2.094 13.037 3.604 18.65 6.855 32.887 19.043 36.774 63.856 7.831 88.391-2.868 2.431-6.466 4.002-10.037 6.131m-14.075-62.773c.368 1.753.164 4.108 1.233 5.122 1.778 1.686 4.397 3.466 6.615 3.407 1.871-.049 4.738-2.368 5.23-4.201.568-2.118-.318-5.33-1.748-7.138-3.209-4.056-8.187-2.928-11.33 2.81Z" style="fill:#5ce44b;fill-rule:nonzero" transform="translate(-219.204 -11.153)"/><path d="M330.472 533.048c6.866 4.504 13.404 8.852 19.973 13.152 1.923 1.258 3.935 2.38 6.219 3.7.118 5.537.98 11.243-.474 16.28-4.259 14.757-9.439 29.247-14.626 44.341-3.891 5.72-7.252 11.061-10.983 16.129-3.662 4.974-6.077 5.472-11.469 2.575-3.794-2.037-7.516-4.281-11.007-6.797-16.661-12.007-30.791-38.431-21.821-61.541.204-.524-.12-1.253-.198-1.886 9.584-14.929 22.975-23.981 40.698-26.296 1.097-.144 2.246.102 3.688.343m20.749 42.752c-.669-2.494-.602-5.7-2.171-7.322-2.606-2.693-7.502-1.396-9.485 1.721-2.098 3.297-.921 7.848 2.561 9.903 3.742 2.21 6.62 1.067 9.095-4.302Z" style="fill:#5ce34b;fill-rule:nonzero" transform="translate(-219.204 -11.153)"/><path d="M285.842 559.244c.322.39.646 1.119.442 1.643-8.97 23.11 5.16 49.534 21.821 61.541 3.491 2.516 7.213 4.76 11.007 6.797 5.392 2.897 7.807 2.399 11.469-2.575 3.731-5.068 7.092-10.409 10.917-15.779-2.593 7.171-5.459 14.503-8.398 21.806-1.095 2.72-2.361 5.371-3.849 8.266-40.83-2.443-63.99-46.071-43.409-81.699Z" style="fill:#125d0b;fill-rule:nonzero" transform="translate(-219.204 -11.153)"/><path d="M529.003 342.004c14.174.665 28.356 1.21 42.514 2.123 2.161.139 4.213 1.98 6.377 3.379.092 7.445.091 7.47-6.822 7.385-19.749-.245-39.499-.512-59.651-1.122.539-1.465 1.27-2.946 2.46-3.627 4.966-2.844 10.069-5.447 15.122-8.138Z" style="fill:#24520d;fill-rule:nonzero" transform="translate(-219.204 -4.153)"/><path d="M632.247 979.732c-.066-3.392-.581-7.251.389-10.692 3.308-11.734 7.352-23.259 10.701-34.982 2.571-8.996 4.418-18.196 6.772-27.258a488.87 488.87 0 0 1 6.241-21.898c.442-1.423 1.997-2.501 3.389-3.806-2.682 11.505-5.526 23.13-8.787 34.638-6.029 21.277-12.302 42.485-18.705 63.998Z" style="fill:#26550e;fill-rule:nonzero" transform="translate(-219.204 -11.153)"/><path d="M528.543 342.014c-4.593 2.681-9.696 5.284-14.662 8.128-1.19.681-1.921 2.162-2.937 3.632-1.984.637-3.899.882-5.802 1.204-5.008.846-6.952-1.306-6.148-6.657 2.041-5.468 7.015-4.374 10.729-5.022 6.011-1.048 12.229-.912 18.82-1.285Z" style="fill:#122308;fill-rule:nonzero" transform="translate(-219.204 -4.153)"/><path d="M514.929 1011.03c1.335-.54 2.627-1.34 4.015-1.58 2.788-.48 6.076-1.81 7.036 3.08-3.319.39-6.658.4-10.482.09-.513-.74-.541-1.17-.569-1.59ZM493.997 1008c3.792-.67 7.829-3.32 10.918 1.81-3.369.05-6.739-.33-10.524-.98-.421-.45-.427-.62-.433-.79 0 0 .026-.03.039-.04ZM508.335 1011.1c.88-3.61 2.448-4.28 4.599-.21.05.57.043 1.03.043 1.03-1.437-.22-2.875-.44-4.642-.82Z" style="fill:#26550e;fill-rule:nonzero" transform="translate(-219.204 -11.153)"/><path d="M493.608 1008.06c.356.15.362.32.371.75-.644.15-1.291.04-2.024-.3.376-.3.84-.37 1.653-.45ZM513.173 1012.15c-.196-.23-.189-.69-.18-.91.438-.22.867-.21 1.615-.21.349.42.377.85.437 1.58-.537.14-1.107-.04-1.872-.46ZM725.195 673.648c-.598.091-1.19.145-1.782.2l-.062-.488a6.967 6.967 0 0 1 1.605.049c.266.131.244.202.239.239Z" style="fill:#122308;fill-rule:nonzero" transform="translate(-219.204 -11.153)"/><path d="M602.388 500.349c8.523 46.942 16.951 93.468 25.352 139.999.857 4.747 1.485 9.534 2.341 14.28.541 2.995-.54 4.83-3.438 5.638-16.218 4.522-32.512 4.784-48.897.937-3.13-.735-4.299-2.697-4.318-5.756-.051-8.327-.248-16.652-.286-24.978-.251-54.646-.669-109.292-.582-163.938.024-15.291 1.439-30.589 2.546-45.86.149-2.05 2.239-3.959 3.43-5.933 1.59 1.685 4.108 3.125 4.628 5.093 5.059 19.142 9.881 38.348 14.555 57.588 1.806 7.436 3.06 15.006 4.669 22.93Z" style="fill:#fcfcfc;fill-rule:nonzero" transform="translate(-219.204 -11.153)"/><path d="M685.008 428.161c-2.75-6.632-5.608-12.816-7.85-19.216-.575-1.643.797-3.967 1.275-5.979 1.898.837 5.088 1.266 5.5 2.572 5.541 17.557 10.698 35.235 15.919 52.892.117.394-.135.898-.215 1.351l-1.323.519c-4.395-10.59-8.79-21.181-13.306-32.139Z" style="fill:#eeefed;fill-rule:nonzero" transform="translate(-219.204 -11.153)"/><path d="M717.917 674.654c-.388.039-.659-.043-.929-.125.087-.103.198-.306.257-.292.271.066.527.192.672.417Z" style="fill:#122308;fill-rule:nonzero" transform="translate(-219.204 -11.153)"/><path d="M588.627 161.354c.491.488.733.716.951.966 6.3 7.219 7.125 16.801 2.005 23.255-4.662 5.878-13.098 7.21-20.337 3.213-7.991-4.413-12.019-13.84-9.409-22.022 2.302-7.219 9.863-11.904 17.203-10.067 3.272.819 6.228 2.898 9.587 4.655Z" style="fill:#fbfefb;fill-rule:nonzero" transform="translate(-219.204 -4.153)"/><path d="M747.164 571.496c3.064-5.358 8.042-6.486 11.251-2.43 1.43 1.808 2.316 5.02 1.748 7.138-.492 1.833-3.359 4.152-5.23 4.201-2.218.059-4.837-1.721-6.615-3.407-1.069-1.014-.865-3.369-1.154-5.502ZM351.135 576.181c-2.389 4.988-5.267 6.131-9.009 3.921-3.482-2.055-4.659-6.606-2.561-9.903 1.983-3.117 6.879-4.414 9.485-1.721 1.569 1.622 1.502 4.828 2.085 7.703Z" style="fill:#f6fdf5;fill-rule:nonzero" transform="translate(-219.204 -11.153)"/><path d="M725.189 673.685c-6.763 17.321-14.689 34.29-20.063 52.032-13.97 46.129-26.816 92.598-40.121 138.929-1.054 3.668-2.193 7.311-3.802 10.962-.528-2.26-1.055-4.658-.469-6.743 1.781-6.33 4.268-12.464 5.979-18.809 3.792-14.056 6.96-28.285 10.965-42.277 5.466-19.094 11.48-38.031 17.24-57.04.433-1.426.664-2.913 1.074-4.346 2.121-7.402 4.142-14.837 6.45-22.181 1.772-5.637 3.955-11.144 5.888-16.733 2.523-7.294 4.98-14.611 7.377-21.661-7.05.734-14.56 1.653-22.094 2.274-20.647 1.703-41.294 3.436-61.962 4.835-8.691.589-17.44.254-26.155.545-12.279.409-24.548 1.209-36.829 1.472-12.101.259-24.213-.04-36.318.086-11.566.121-23.14.262-34.693.789-10.37.472-20.847.709-31.04 2.442-13.806 2.347-28.089 3.45-40.257 11.917-4.598 3.2-8.169 6.447-7.326 12.418 1.528 10.814 3.127 21.622 4.936 32.391 2.004 11.926 4.084 23.845 6.488 35.694 2.21 10.898 5.188 21.643 7.3 32.557 3.43 17.723 6.198 35.574 9.671 53.287a2054.571 2054.571 0 0 0 12.112 57.379c3.726 16.493 8.441 32.772 11.872 49.32 2.392 11.536 8.412 18.786 19.715 21.896 1.137.31 1.93 1.88 2.87 2.88-.013.01-.039.04-.389.06-.813.08-1.277.15-1.74.21-.718-.06-1.435-.13-2.752-.46-6.021-3.73-12.572-6.24-16.531-10.942-3.625-4.304-4.98-10.835-6.411-16.614-4.475-18.06-8.755-36.176-12.668-54.366-8.002-37.206-16.024-74.414-23.45-111.738-5.927-29.792-10.798-59.794-16.557-89.622-1.447-7.493.823-12.868 6.597-16.849 7.806-5.381 16.286-9.6 25.704-11.386 13.314-2.525 26.605-5.338 40.03-7.056 13.313-1.704 26.765-2.516 40.182-3.146 14.62-.685 29.275-.588 43.908-1.049 29.912-.943 59.827-1.844 89.724-3.146 12.758-.555 25.487-1.939 38.201-3.22 5.036-.507 9.996-1.757 14.991-2.668-.919-.927-1.726-1.005-2.515-.916-14.175 1.595-28.312 3.758-42.53 4.696-22.546 1.489-45.14 2.814-67.724 3.024-32.13.3-64.275-.197-96.401-.913-14.422-.322-28.917-1.252-43.196-3.228-24.163-3.345-48.216-7.542-72.245-11.778-11.611-2.046-23.107-4.815-34.569-7.607-6.321-1.539-10.311-7.051-9.573-12.705.622-4.764 1.318-9.597 2.73-14.168 7.903-25.593 15.963-51.138 24.103-76.657 11.228-35.2 22.567-70.365 33.872-105.54 6.723-20.919 13.485-41.825 20.195-62.748 1.071-3.339 2.336-6.786-1.248-9.555 5.422-6.589 13.035-9.461 20.925-10.621 15.43-2.27 30.96-4.121 46.515-5.218 16.911-1.192 33.915-2.139 50.845-1.747 28.064.649 56.234.666 84.004 5.753 5.378.985 10.761 2.335 15.887 4.213 7.425 2.721 13.234 7.59 16.018 14.33 7.111 0 13.889-1.06 20.184.232 11.426 2.343 18.993 10.145 22.88 21.009 12.393 34.645 24.591 69.36 36.773 104.08 2.585 7.368 4.783 14.872 6.925 22.931-8.545 4.829-16.751 9.267-25.216 13.141-3.503 1.604-4.586 2.966-3.606 7.02 6.559 27.15 16.162 53.216 27.514 78.663.762 1.709 3.251 3.545 5.075 3.7 4.084.346 8.254-.331 12.389-.591l-13.58 6.188c.18.906.32 2.02.625 3.088 3.123 10.907-.331 19.35-10.504 24.627-3.628 1.882-7.647 3.008-12.093 4.524-1.051.071-1.498.098-1.944.125l.062.488 1.776-.163M602.285 499.934c-1.506-7.509-2.76-15.079-4.566-22.515-4.674-19.24-9.496-38.446-14.555-57.588-.52-1.968-3.038-3.408-4.628-5.093-1.191 1.974-3.281 3.883-3.43 5.933-1.107 15.271-2.522 30.569-2.546 45.86-.087 54.646.331 109.292.582 163.938.038 8.326.235 16.651.286 24.978.019 3.059 1.188 5.021 4.318 5.756 16.385 3.847 32.679 3.585 48.897-.937 2.898-.808 3.979-2.643 3.438-5.638-.856-4.746-1.484-9.533-2.341-14.28a91664.55 91664.55 0 0 0-25.455-140.414m82.844-71.406 13.185 31.772 1.323-.519c.08-.453.332-.957.215-1.351-5.221-17.657-10.378-35.335-15.919-52.892-.412-1.306-3.602-1.735-5.5-2.572-.478 2.012-1.85 4.336-1.275 5.979 2.242 6.4 5.1 12.584 7.971 19.583m32.904 246.006c-.261-.105-.517-.231-.788-.297-.059-.014-.17.189-.257.292.27.082.541.164 1.045.005Z" style="fill:#26550e;fill-rule:nonzero" transform="translate(230.326 -11.153)"/><path d="M494.01 1007.99c-.953-.99-1.746-2.56-2.883-2.87-11.303-3.11-17.323-10.36-19.715-21.896-3.431-16.548-8.146-32.827-11.872-49.32a2054.571 2054.571 0 0 1-12.112-57.379c-3.473-17.713-6.241-35.564-9.671-53.287-2.112-10.914-5.09-21.659-7.3-32.557-2.404-11.849-4.484-23.768-6.488-35.694-1.809-10.769-3.408-21.577-4.936-32.391-.843-5.971 2.728-9.218 7.326-12.418 12.168-8.467 26.451-9.57 40.257-11.917 10.193-1.733 20.67-1.97 31.04-2.442 11.553-.527 23.127-.668 34.693-.789 12.105-.126 24.217.173 36.318-.086 12.281-.263 24.55-1.063 36.829-1.472 8.715-.291 17.464.044 26.155-.545 20.668-1.399 41.315-3.132 61.962-4.835 7.534-.621 15.044-1.54 22.094-2.274-2.397 7.05-4.854 14.367-7.377 21.661-1.933 5.589-4.116 11.096-5.888 16.733-2.308 7.344-4.329 14.779-6.45 22.181-.41 1.433-.641 2.92-1.074 4.346-5.76 19.009-11.774 37.946-17.24 57.04-4.005 13.992-7.173 28.221-10.965 42.277-1.711 6.345-4.198 12.479-5.979 18.809-.586 2.085-.059 4.483.255 7.035.044 1.716-.208 3.135-1.031 4.909-1.611 1.592-3.166 2.67-3.608 4.093a488.87 488.87 0 0 0-6.241 21.898c-2.354 9.062-4.201 18.262-6.772 27.258-3.349 11.723-7.393 23.248-10.701 34.982-.97 3.441-.455 7.3-.622 10.968-1.965 9.097-7.325 15.332-15.656 19.42-13.495 6.622-27.93 9.972-42.667 11.352-15.517 1.46-31.165 1.53-47.243 1.78-1.428-4.92-4.716-3.59-7.504-3.11-1.388.24-2.68 1.04-4.336 1.58-.748 0-1.177-.01-1.665-.36-2.16-3.85-3.728-3.18-4.939.28-.853-.11-1.707-.22-2.825-.95-3.353-5.32-7.39-2.67-11.169-2.01Z" style="fill:#26550e;fill-rule:nonzero;stroke:#26550e;stroke-width:1px" transform="translate(230.326 -11.153)"/><path d="M428.367 143.243c38.589-62.045 124.17-81.132 186.274-35.883 54.194 39.485 72.3 112.403 42.318 172.227-7.499 14.962-17.1 28.544-30.963 39.441-20.173 11.795-41.029 12.132-62.488 7.484-33.478-7.251-60.844-25.601-85.596-48.127-20.048-18.245-35.313-40.225-45.936-65.242-5.837-13.747-10.019-28.088-8.861-43.131.694-9.004 3.432-17.851 5.252-26.769m160.001 17.861c-3.1-1.507-6.056-3.586-9.328-4.405-7.34-1.837-14.901 2.848-17.203 10.067-2.61 8.182 1.418 17.609 9.409 22.022 7.239 3.997 15.675 2.665 20.337-3.213 5.12-6.454 4.295-16.036-2.005-23.255-.218-.25-.46-.478-1.21-1.216Z" style="fill:#5ce54c;fill-rule:nonzero" transform="translate(230.326 -4.153)"/><path d="M423.432 378.031c3.887 2.651 2.622 6.098 1.551 9.437-6.71 20.923-13.472 41.829-20.195 62.748-11.305 35.175-22.644 70.34-33.872 105.54-8.14 25.519-16.2 51.064-24.103 76.657-1.412 4.571-2.108 9.404-2.73 14.168-.738 5.654 3.252 11.166 9.573 12.705 11.462 2.792 22.958 5.561 34.569 7.607 24.029 4.236 48.082 8.433 72.245 11.778 14.279 1.976 28.774 2.906 43.196 3.228 32.126.716 64.271 1.213 96.401.913 22.584-.21 45.178-1.535 67.724-3.024 14.218-.938 28.355-3.101 42.53-4.696.789-.089 1.596-.011 2.515.916-4.995.911-9.955 2.161-14.991 2.668-12.714 1.281-25.443 2.665-38.201 3.22-29.897 1.302-59.812 2.203-89.724 3.146-14.633.461-29.288.364-43.908 1.049-13.417.63-26.869 1.442-40.182 3.146-13.425 1.718-26.716 4.531-40.03 7.056-9.418 1.786-17.898 6.005-25.704 11.386-5.774 3.981-8.044 9.356-6.597 16.849 5.759 29.828 10.63 59.83 16.557 89.622 7.426 37.324 15.448 74.532 23.45 111.738 3.913 18.19 8.193 36.306 12.668 54.366 1.431 5.779 2.786 12.31 6.411 16.614 3.959 4.702 10.51 7.212 16.171 10.932-7.213-1.67-14.809-3.18-22.065-5.67-4.62-1.59-8.936-4.347-13.028-7.113-5.897-3.986-7.904-10.546-9.745-16.959a16417.57 16417.57 0 0 1-23.891-83.987c-12.119-43.069-23.837-86.253-36.336-129.21-6.736-23.149-14.6-45.975-22.267-68.842-2.105-6.279-4.943-12.404-8.225-18.154-1.479-2.591-4.802-4.187-7.413-6.06-4.796-3.442-10.165-6.251-14.385-10.277-3.605-3.44-5.57-8.234-3.439-13.698.706-1.809.699-3.895 1.303-6.477 1.474-3.305 2.74-5.956 3.835-8.676a1682.722 1682.722 0 0 0 8.766-22.305c4.885-14.945 10.065-29.435 14.324-44.192 1.454-5.037.592-10.743.864-16.499 3.586-7.993 7.319-15.539 10.55-23.294 4.137-9.929 8.014-19.972 11.749-30.06 8.707-23.512 17.362-47.044 25.834-70.642 4.136-11.521 7.863-23.19 11.639-34.837.458-1.414.064-3.106.064-4.669 2.08-2.677 4.16-5.354 6.542-8.148Z" style="fill:#122308;fill-rule:nonzero" transform="translate(230.326 -11.153)"/><path d="M428.046 143.366c-1.499 8.795-4.237 17.642-4.931 26.646-1.158 15.043 3.024 29.384 8.861 43.131 10.623 25.017 25.888 46.997 45.936 65.242 24.752 22.526 52.118 40.876 85.596 48.127 21.459 4.648 42.315 4.311 62.224-7.27-4.871 4.415-9.562 9.808-15.423 13.15-10.158 5.791-21.04 10.31-32.047 15.066-2.532-1.351-4.584-3.192-6.745-3.331-14.158-.913-28.34-1.458-42.974-2.113-6.591.373-12.809.237-18.82 1.285-3.714.648-8.688-.446-10.732 4.568-28.32-8.962-50.668-26.074-67.937-50.011-15.499-21.482-23.742-45.459-25.205-71.975-1.652-29.931 5.689-57.29 22.197-82.515Z" style="fill:#125d0b;fill-rule:nonzero" transform="translate(230.326 -4.153)"/><path d="M416.513 386.067c.377 1.675.771 3.367.313 4.781-3.776 11.647-7.503 23.316-11.639 34.837-8.472 23.598-17.127 47.13-25.834 70.642-3.735 10.088-7.612 20.131-11.749 30.06-3.231 7.755-6.964 15.301-10.863 23.158-2.361-.965-4.373-2.087-6.296-3.345-6.569-4.3-13.107-8.648-19.656-12.977 5.381-15.842 10.708-31.703 16.154-47.522 9.355-27.173 18.826-54.306 28.164-81.484 4.914-14.304 19.272-22.739 34.26-19.887 2.277.433 4.514 1.078 7.146 1.737Z" style="fill:#25540e;fill-rule:nonzero" transform="translate(230.326 -11.153)"/><path d="M761.16 634.649c-4.448.419-8.618 1.096-12.702.75-1.824-.155-4.313-1.991-5.075-3.7-11.352-25.447-20.955-51.513-27.514-78.663-.98-4.054.103-5.416 3.606-7.02 8.465-3.874 16.671-8.312 25.241-12.744 6.415 2.094 13.037 3.604 18.65 6.855 32.887 19.043 36.774 63.856 7.831 88.391-2.868 2.431-6.466 4.002-10.037 6.131m-14.075-62.773c.368 1.753.164 4.108 1.233 5.122 1.778 1.686 4.397 3.466 6.615 3.407 1.871-.049 4.738-2.368 5.23-4.201.568-2.118-.318-5.33-1.748-7.138-3.209-4.056-8.187-2.928-11.33 2.81Z" style="fill:#5ce44b;fill-rule:nonzero" transform="translate(230.326 -11.153)"/><path d="M330.472 533.048c6.866 4.504 13.404 8.852 19.973 13.152 1.923 1.258 3.935 2.38 6.219 3.7.118 5.537.98 11.243-.474 16.28-4.259 14.757-9.439 29.247-14.626 44.341-3.891 5.72-7.252 11.061-10.983 16.129-3.662 4.974-6.077 5.472-11.469 2.575-3.794-2.037-7.516-4.281-11.007-6.797-16.661-12.007-30.791-38.431-21.821-61.541.204-.524-.12-1.253-.198-1.886 9.584-14.929 22.975-23.981 40.698-26.296 1.097-.144 2.246.102 3.688.343m20.749 42.752c-.669-2.494-.602-5.7-2.171-7.322-2.606-2.693-7.502-1.396-9.485 1.721-2.098 3.297-.921 7.848 2.561 9.903 3.742 2.21 6.62 1.067 9.095-4.302Z" style="fill:#5ce34b;fill-rule:nonzero" transform="translate(230.326 -11.153)"/><path d="M285.842 559.244c.322.39.646 1.119.442 1.643-8.97 23.11 5.16 49.534 21.821 61.541 3.491 2.516 7.213 4.76 11.007 6.797 5.392 2.897 7.807 2.399 11.469-2.575 3.731-5.068 7.092-10.409 10.917-15.779-2.593 7.171-5.459 14.503-8.398 21.806-1.095 2.72-2.361 5.371-3.849 8.266-40.83-2.443-63.99-46.071-43.409-81.699Z" style="fill:#125d0b;fill-rule:nonzero" transform="translate(230.326 -11.153)"/><path d="M529.003 342.004c14.174.665 28.356 1.21 42.514 2.123 2.161.139 4.213 1.98 6.377 3.379.092 7.445.091 7.47-6.822 7.385-19.749-.245-39.499-.512-59.651-1.122.539-1.465 1.27-2.946 2.46-3.627 4.966-2.844 10.069-5.447 15.122-8.138Z" style="fill:#24520d;fill-rule:nonzero" transform="translate(230.326 -4.153)"/><path d="M632.247 979.732c-.066-3.392-.581-7.251.389-10.692 3.308-11.734 7.352-23.259 10.701-34.982 2.571-8.996 4.418-18.196 6.772-27.258a488.87 488.87 0 0 1 6.241-21.898c.442-1.423 1.997-2.501 3.389-3.806-2.682 11.505-5.526 23.13-8.787 34.638-6.029 21.277-12.302 42.485-18.705 63.998Z" style="fill:#26550e;fill-rule:nonzero" transform="translate(230.326 -11.153)"/><path d="M528.543 342.014c-4.593 2.681-9.696 5.284-14.662 8.128-1.19.681-1.921 2.162-2.937 3.632-1.984.637-3.899.882-5.802 1.204-5.008.846-6.952-1.306-6.148-6.657 2.041-5.468 7.015-4.374 10.729-5.022 6.011-1.048 12.229-.912 18.82-1.285Z" style="fill:#122308;fill-rule:nonzero" transform="translate(230.326 -4.153)"/><path d="M514.929 1011.03c1.335-.54 2.627-1.34 4.015-1.58 2.788-.48 6.076-1.81 7.036 3.08-3.319.39-6.658.4-10.482.09-.513-.74-.541-1.17-.569-1.59ZM493.997 1008c3.792-.67 7.829-3.32 10.918 1.81-3.369.05-6.739-.33-10.524-.98-.421-.45-.427-.62-.433-.79 0 0 .026-.03.039-.04ZM508.335 1011.1c.88-3.61 2.448-4.28 4.599-.21.05.57.043 1.03.043 1.03-1.437-.22-2.875-.44-4.642-.82Z" style="fill:#26550e;fill-rule:nonzero" transform="translate(230.326 -11.153)"/><path d="M493.608 1008.06c.356.15.362.32.371.75-.644.15-1.291.04-2.024-.3.376-.3.84-.37 1.653-.45ZM513.173 1012.15c-.196-.23-.189-.69-.18-.91.438-.22.867-.21 1.615-.21.349.42.377.85.437 1.58-.537.14-1.107-.04-1.872-.46ZM725.195 673.648c-.598.091-1.19.145-1.782.2l-.062-.488a6.967 6.967 0 0 1 1.605.049c.266.131.244.202.239.239Z" style="fill:#122308;fill-rule:nonzero" transform="translate(230.326 -11.153)"/><path d="M602.388 500.349c8.523 46.942 16.951 93.468 25.352 139.999.857 4.747 1.485 9.534 2.341 14.28.541 2.995-.54 4.83-3.438 5.638-16.218 4.522-32.512 4.784-48.897.937-3.13-.735-4.299-2.697-4.318-5.756-.051-8.327-.248-16.652-.286-24.978-.251-54.646-.669-109.292-.582-163.938.024-15.291 1.439-30.589 2.546-45.86.149-2.05 2.239-3.959 3.43-5.933 1.59 1.685 4.108 3.125 4.628 5.093 5.059 19.142 9.881 38.348 14.555 57.588 1.806 7.436 3.06 15.006 4.669 22.93Z" style="fill:#fcfcfc;fill-rule:nonzero" transform="translate(230.326 -11.153)"/><path d="M685.008 428.161c-2.75-6.632-5.608-12.816-7.85-19.216-.575-1.643.797-3.967 1.275-5.979 1.898.837 5.088 1.266 5.5 2.572 5.541 17.557 10.698 35.235 15.919 52.892.117.394-.135.898-.215 1.351l-1.323.519c-4.395-10.59-8.79-21.181-13.306-32.139Z" style="fill:#eeefed;fill-rule:nonzero" transform="translate(230.326 -11.153)"/><path d="M717.917 674.654c-.388.039-.659-.043-.929-.125.087-.103.198-.306.257-.292.271.066.527.192.672.417Z" style="fill:#122308;fill-rule:nonzero" transform="translate(230.326 -11.153)"/><path d="M588.627 161.354c.491.488.733.716.951.966 6.3 7.219 7.125 16.801 2.005 23.255-4.662 5.878-13.098 7.21-20.337 3.213-7.991-4.413-12.019-13.84-9.409-22.022 2.302-7.219 9.863-11.904 17.203-10.067 3.272.819 6.228 2.898 9.587 4.655Z" style="fill:#fbfefb;fill-rule:nonzero" transform="translate(230.326 -4.153)"/><path d="M747.164 571.496c3.064-5.358 8.042-6.486 11.251-2.43 1.43 1.808 2.316 5.02 1.748 7.138-.492 1.833-3.359 4.152-5.23 4.201-2.218.059-4.837-1.721-6.615-3.407-1.069-1.014-.865-3.369-1.154-5.502ZM351.135 576.181c-2.389 4.988-5.267 6.131-9.009 3.921-3.482-2.055-4.659-6.606-2.561-9.903 1.983-3.117 6.879-4.414 9.485-1.721 1.569 1.622 1.502 4.828 2.085 7.703Z" style="fill:#f6fdf5;fill-rule:nonzero" transform="translate(230.326 -11.153)"/></svg>