<?xml version="1.0" encoding="UTF-8" standalone="no"?>
<!DOCTYPE svg PUBLIC "-//W3C//DTD SVG 1.1//EN" "http://www.w3.org/Graphics/SVG/1.1/DTD/svg11.dtd">
<svg width="100%" height="100%" viewBox="0 0 667 992" version="1.1" xmlns="http://www.w3.org/2000/svg" xmlns:xlink="http://www.w3.org/1999/xlink" xml:space="preserve" xmlns:serif="http://www.serif.com/" style="fill-rule:evenodd;clip-rule:evenodd;stroke-linejoin:round;stroke-miterlimit:2;">
    <g transform="matrix(1,0,0,1,-620.935,-5074.94)">
        <g transform="matrix(4.91494,0,0,2.89224,8138.13,-4639.59)">
            <g transform="matrix(0.0906489,0,0,0.536762,-1572.75,466.567)">
                <path d="M1951.83,5419.78C1951.83,5405.98 1912.8,5394.78 1864.72,5394.78L587.104,5394.78C539.026,5394.78 499.994,5405.98 499.994,5419.78L499.994,5995.72C499.994,6009.52 539.026,6020.72 587.104,6020.72L1864.72,6020.72C1912.8,6020.72 1951.83,6009.52 1951.83,5995.72L1951.83,5419.78Z" style="fill:rgb(255,251,220);"/>
            </g>
            <g transform="matrix(0.0906489,0,0,0.536762,-1572.75,466.567)">
                <path d="M1605.57,6027.16L1650.46,6027.16C1662.85,6027.16 1672.9,6024.28 1672.9,6020.72C1672.9,6017.17 1662.85,6014.28 1650.46,6014.28L1605.57,6014.28C1593.18,6014.28 1583.12,6017.17 1583.12,6020.72C1583.12,6024.28 1593.18,6027.16 1605.57,6027.16ZM1740.24,6027.16L1785.13,6027.16C1797.52,6027.16 1807.57,6024.28 1807.57,6020.72C1807.57,6017.17 1797.52,6014.28 1785.13,6014.28C1771.61,6014.28 1756.58,6014.28 1740.24,6014.28C1727.85,6014.28 1717.79,6017.17 1717.79,6020.72C1717.79,6024.28 1727.85,6027.16 1740.24,6027.16ZM1470.9,6027.16L1515.79,6027.16C1528.18,6027.16 1538.23,6024.28 1538.23,6020.72C1538.23,6017.17 1528.18,6014.28 1515.79,6014.28L1470.9,6014.28C1458.51,6014.28 1448.45,6017.17 1448.45,6020.72C1448.45,6024.28 1458.51,6027.16 1470.9,6027.16ZM662.877,6027.16L707.767,6027.16C720.154,6027.16 730.212,6024.28 730.212,6020.72C730.212,6017.17 720.154,6014.28 707.767,6014.28C691.36,6014.28 676.335,6014.28 662.877,6014.28C650.489,6014.28 640.432,6017.17 640.432,6020.72C640.432,6024.28 650.489,6027.16 662.877,6027.16ZM1336.23,6027.16L1381.12,6027.16C1393.51,6027.16 1403.56,6024.28 1403.56,6020.72C1403.56,6017.17 1393.51,6014.28 1381.12,6014.28L1336.23,6014.28C1323.84,6014.28 1313.78,6017.17 1313.78,6020.72C1313.78,6024.28 1323.84,6027.16 1336.23,6027.16ZM1066.88,6027.16L1111.78,6027.16C1124.16,6027.16 1134.22,6024.28 1134.22,6020.72C1134.22,6017.17 1124.16,6014.28 1111.78,6014.28L1066.88,6014.28C1054.5,6014.28 1044.44,6017.17 1044.44,6020.72C1044.44,6024.28 1054.5,6027.16 1066.88,6027.16ZM932.215,6027.16L977.105,6027.16C989.492,6027.16 999.55,6024.28 999.55,6020.72C999.55,6017.17 989.492,6014.28 977.105,6014.28L932.215,6014.28C919.827,6014.28 909.77,6017.17 909.77,6020.72C909.77,6024.28 919.827,6027.16 932.215,6027.16ZM797.546,6027.16L842.435,6027.16C854.822,6027.16 864.88,6024.28 864.88,6020.72C864.88,6017.17 854.822,6014.28 842.435,6014.28C826.974,6014.28 811.989,6014.28 797.546,6014.28C785.158,6014.28 775.101,6017.17 775.101,6020.72C775.101,6024.28 785.158,6027.16 797.546,6027.16ZM1201.56,6027.16L1246.45,6027.16C1258.84,6027.16 1268.89,6024.28 1268.89,6020.72C1268.89,6017.17 1258.84,6014.28 1246.45,6014.28L1201.56,6014.28C1189.17,6014.28 1179.11,6017.17 1179.11,6020.72C1179.11,6024.28 1189.17,6027.16 1201.56,6027.16ZM1877.48,6026.95C1896.78,6026.31 1914.56,6024.22 1929.47,6021.08C1939.46,6018.98 1941.62,6014.94 1934.29,6012.08C1926.96,6009.21 1912.9,6008.59 1902.91,6010.7C1894.13,6012.55 1883.66,6013.78 1872.29,6014.16C1859.99,6014.57 1851.16,6017.77 1852.59,6021.3C1854.02,6024.83 1865.18,6027.36 1877.48,6026.95ZM518.547,6020.24C533.007,6023.58 550.474,6025.88 569.584,6026.76C581.814,6027.33 593.344,6024.94 595.315,6021.43C597.287,6017.92 588.959,6014.61 576.729,6014.04C565.469,6013.52 555.182,6012.16 546.663,6010.2C537.006,6007.97 522.866,6008.41 515.108,6011.19C507.349,6013.96 508.89,6018.02 518.547,6020.24ZM1974.28,5993.42L1974.28,5980.54C1974.28,5976.98 1964.22,5974.1 1951.83,5974.1C1939.45,5974.1 1929.39,5976.98 1929.39,5980.54L1929.39,5993.42C1929.39,5996.98 1939.45,5999.86 1951.83,5999.86C1964.22,5999.86 1974.28,5996.98 1974.28,5993.42ZM477.549,5979.44L477.549,5992.33C477.549,5995.88 487.606,5998.77 499.994,5998.77C512.381,5998.77 522.439,5995.88 522.439,5992.33L522.439,5979.44C522.439,5975.89 512.381,5973 499.994,5973C487.606,5973 477.549,5975.89 477.549,5979.44ZM1974.28,5954.77L1974.28,5941.89C1974.28,5938.34 1964.22,5935.45 1951.83,5935.45C1939.45,5935.45 1929.39,5938.34 1929.39,5941.89L1929.39,5954.77C1929.39,5958.33 1939.45,5961.22 1951.83,5961.22C1964.22,5961.22 1974.28,5958.33 1974.28,5954.77ZM477.549,5940.79L477.549,5953.68C477.549,5957.23 487.606,5960.12 499.994,5960.12C512.381,5960.12 522.439,5957.23 522.439,5953.68L522.439,5940.79C522.439,5937.24 512.381,5934.35 499.994,5934.35C487.606,5934.35 477.549,5937.24 477.549,5940.79ZM1974.28,5916.13L1974.28,5903.24C1974.28,5899.69 1964.22,5896.8 1951.83,5896.8C1939.45,5896.8 1929.39,5899.69 1929.39,5903.24L1929.39,5916.13C1929.39,5919.68 1939.45,5922.57 1951.83,5922.57C1964.22,5922.57 1974.28,5919.68 1974.28,5916.13ZM477.549,5902.15L477.549,5915.03C477.549,5918.58 487.606,5921.47 499.994,5921.47C512.381,5921.47 522.439,5918.58 522.439,5915.03L522.439,5902.15C522.439,5898.59 512.381,5895.7 499.994,5895.7C487.606,5895.7 477.549,5898.59 477.549,5902.15ZM1974.28,5877.48L1974.28,5864.59C1974.28,5861.04 1964.22,5858.15 1951.83,5858.15C1939.45,5858.15 1929.39,5861.04 1929.39,5864.59L1929.39,5877.48C1929.39,5881.03 1939.45,5883.92 1951.83,5883.92C1964.22,5883.92 1974.28,5881.03 1974.28,5877.48ZM477.549,5863.5L477.549,5876.38C477.549,5879.94 487.606,5882.82 499.994,5882.82C512.381,5882.82 522.439,5879.94 522.439,5876.38L522.439,5863.5C522.439,5859.94 512.381,5857.06 499.994,5857.06C487.606,5857.06 477.549,5859.94 477.549,5863.5ZM1974.28,5838.83L1974.28,5825.94C1974.28,5822.39 1964.22,5819.5 1951.83,5819.5C1939.45,5819.5 1929.39,5822.39 1929.39,5825.94L1929.39,5838.83C1929.39,5842.38 1939.45,5845.27 1951.83,5845.27C1964.22,5845.27 1974.28,5842.38 1974.28,5838.83ZM477.549,5824.85L477.549,5837.73C477.549,5841.29 487.606,5844.17 499.994,5844.17C512.381,5844.17 522.439,5841.29 522.439,5837.73L522.439,5824.85C522.439,5821.29 512.381,5818.41 499.994,5818.41C487.606,5818.41 477.549,5821.29 477.549,5824.85ZM1974.28,5800.18L1974.28,5787.3C1974.28,5783.74 1964.22,5780.86 1951.83,5780.86C1939.45,5780.86 1929.39,5783.74 1929.39,5787.3L1929.39,5800.18C1929.39,5803.73 1939.45,5806.62 1951.83,5806.62C1964.22,5806.62 1974.28,5803.73 1974.28,5800.18ZM477.549,5786.2L477.549,5799.08C477.549,5802.64 487.606,5805.52 499.994,5805.52C512.381,5805.52 522.439,5802.64 522.439,5799.08L522.439,5786.2C522.439,5782.64 512.381,5779.76 499.994,5779.76C487.606,5779.76 477.549,5782.64 477.549,5786.2ZM1974.28,5761.53L1974.28,5748.65C1974.28,5745.09 1964.22,5742.21 1951.83,5742.21C1939.45,5742.21 1929.39,5745.09 1929.39,5748.65L1929.39,5761.53C1929.39,5765.09 1939.45,5767.97 1951.83,5767.97C1964.22,5767.97 1974.28,5765.09 1974.28,5761.53ZM477.549,5747.55L477.549,5760.43C477.549,5763.99 487.606,5766.88 499.994,5766.88C512.381,5766.88 522.439,5763.99 522.439,5760.43L522.439,5747.55C522.439,5743.99 512.381,5741.11 499.994,5741.11C487.606,5741.11 477.549,5743.99 477.549,5747.55ZM1974.28,5722.88L1974.28,5710C1974.28,5706.44 1964.22,5703.56 1951.83,5703.56C1939.45,5703.56 1929.39,5706.44 1929.39,5710L1929.39,5722.88C1929.39,5726.44 1939.45,5729.32 1951.83,5729.32C1964.22,5729.32 1974.28,5726.44 1974.28,5722.88ZM477.549,5708.9L477.549,5721.78C477.549,5725.34 487.606,5728.23 499.994,5728.23C512.381,5728.23 522.439,5725.34 522.439,5721.78L522.439,5708.9C522.439,5705.35 512.381,5702.46 499.994,5702.46C487.606,5702.46 477.549,5705.35 477.549,5708.9ZM1974.28,5684.23L1974.28,5671.35C1974.28,5667.8 1964.22,5664.91 1951.83,5664.91C1939.45,5664.91 1929.39,5667.8 1929.39,5671.35L1929.39,5684.23C1929.39,5687.79 1939.45,5690.68 1951.83,5690.68C1964.22,5690.68 1974.28,5687.79 1974.28,5684.23ZM477.549,5670.25L477.549,5683.14C477.549,5686.69 487.606,5689.58 499.994,5689.58C512.381,5689.58 522.439,5686.69 522.439,5683.14L522.439,5670.25C522.439,5666.7 512.381,5663.81 499.994,5663.81C487.606,5663.81 477.549,5666.7 477.549,5670.25ZM1974.28,5645.59L1974.28,5632.7C1974.28,5629.15 1964.22,5626.26 1951.83,5626.26C1939.45,5626.26 1929.39,5629.15 1929.39,5632.7L1929.39,5645.59C1929.39,5649.14 1939.45,5652.03 1951.83,5652.03C1964.22,5652.03 1974.28,5649.14 1974.28,5645.59ZM477.549,5631.6L477.549,5644.49C477.549,5648.04 487.606,5650.93 499.994,5650.93C512.381,5650.93 522.439,5648.04 522.439,5644.49L522.439,5631.6C522.439,5628.05 512.381,5625.16 499.994,5625.16C487.606,5625.16 477.549,5628.05 477.549,5631.6ZM1974.28,5606.94L1974.28,5594.05C1974.28,5590.5 1964.22,5587.61 1951.83,5587.61C1939.45,5587.61 1929.39,5590.5 1929.39,5594.05L1929.39,5606.94C1929.39,5610.49 1939.45,5613.38 1951.83,5613.38C1964.22,5613.38 1974.28,5610.49 1974.28,5606.94ZM477.549,5592.95L477.549,5605.84C477.549,5609.39 487.606,5612.28 499.994,5612.28C512.381,5612.28 522.439,5609.39 522.439,5605.84L522.439,5592.95C522.439,5589.4 512.381,5586.51 499.994,5586.51C487.606,5586.51 477.549,5589.4 477.549,5592.95ZM1974.28,5568.29L1974.28,5555.4C1974.28,5551.85 1964.22,5548.96 1951.83,5548.96C1939.45,5548.96 1929.39,5551.85 1929.39,5555.4L1929.39,5568.29C1929.39,5571.84 1939.45,5574.73 1951.83,5574.73C1964.22,5574.73 1974.28,5571.84 1974.28,5568.29ZM477.549,5554.31L477.549,5567.19C477.549,5570.74 487.606,5573.63 499.994,5573.63C512.381,5573.63 522.439,5570.74 522.439,5567.19L522.439,5554.31C522.439,5550.75 512.381,5547.86 499.994,5547.86C487.606,5547.86 477.549,5550.75 477.549,5554.31ZM1974.28,5529.64L1974.28,5516.76C1974.28,5513.2 1964.22,5510.32 1951.83,5510.32C1939.45,5510.32 1929.39,5513.2 1929.39,5516.76L1929.39,5529.64C1929.39,5533.19 1939.45,5536.08 1951.83,5536.08C1964.22,5536.08 1974.28,5533.19 1974.28,5529.64ZM477.549,5515.66L477.549,5528.54C477.549,5532.1 487.606,5534.98 499.994,5534.98C512.381,5534.98 522.439,5532.1 522.439,5528.54L522.439,5515.66C522.439,5512.1 512.381,5509.22 499.994,5509.22C487.606,5509.22 477.549,5512.1 477.549,5515.66ZM1974.28,5490.99L1974.28,5478.11C1974.28,5474.55 1964.22,5471.67 1951.83,5471.67C1939.45,5471.67 1929.39,5474.55 1929.39,5478.11L1929.39,5490.99C1929.39,5494.55 1939.45,5497.43 1951.83,5497.43C1964.22,5497.43 1974.28,5494.55 1974.28,5490.99ZM477.549,5477.01L477.549,5489.89C477.549,5493.45 487.606,5496.33 499.994,5496.33C512.381,5496.33 522.439,5493.45 522.439,5489.89L522.439,5477.01C522.439,5473.45 512.381,5470.57 499.994,5470.57C487.606,5470.57 477.549,5473.45 477.549,5477.01ZM1974.28,5452.34L1974.28,5439.46C1974.28,5435.9 1964.22,5433.02 1951.83,5433.02C1939.45,5433.02 1929.39,5435.9 1929.39,5439.46L1929.39,5452.34C1929.39,5455.9 1939.45,5458.78 1951.83,5458.78C1964.22,5458.78 1974.28,5455.9 1974.28,5452.34ZM477.549,5438.36L477.549,5451.24C477.549,5454.8 487.606,5457.69 499.994,5457.69C512.381,5457.69 522.439,5454.8 522.439,5451.24L522.439,5438.36C522.439,5434.81 512.381,5431.92 499.994,5431.92C487.606,5431.92 477.549,5434.81 477.549,5438.36ZM1974.28,5419.78C1974.28,5414.15 1969.1,5408.86 1960.04,5404.28C1953.92,5401.19 1940.21,5400.1 1929.44,5401.86C1918.67,5403.61 1914.89,5407.55 1921.01,5410.64C1926.35,5413.34 1929.39,5416.46 1929.39,5419.78C1929.39,5423.33 1939.45,5426.22 1951.83,5426.22C1964.22,5426.22 1974.28,5423.33 1974.28,5419.78ZM510.996,5397.17C497.569,5400.89 487.453,5405.59 482.024,5410.87C478.513,5414.28 485.309,5417.86 497.189,5418.87C509.069,5419.88 521.564,5417.93 525.074,5414.52C528.279,5411.4 534.263,5408.63 542.189,5406.44C551.097,5403.96 551.341,5399.88 542.733,5397.33C534.125,5394.77 519.904,5394.7 510.996,5397.17ZM1867.44,5388.35C1866.54,5388.34 1865.63,5388.34 1864.72,5388.34L1822,5388.34C1809.61,5388.34 1799.56,5391.22 1799.56,5394.78C1799.56,5398.34 1809.61,5401.22 1822,5401.22L1864.72,5401.22C1865.27,5401.22 1865.8,5401.22 1866.34,5401.23C1878.73,5401.31 1889.03,5398.5 1889.33,5394.94C1889.63,5391.39 1879.83,5388.44 1867.44,5388.35ZM1193.54,5388.34L1148.65,5388.34C1136.26,5388.34 1126.2,5391.22 1126.2,5394.78C1126.2,5398.34 1136.26,5401.22 1148.65,5401.22L1193.54,5401.22C1205.93,5401.22 1215.99,5398.34 1215.99,5394.78C1215.99,5391.22 1205.93,5388.34 1193.54,5388.34ZM1328.21,5388.34L1283.32,5388.34C1270.93,5388.34 1260.88,5391.22 1260.88,5394.78C1260.88,5398.34 1270.93,5401.22 1283.32,5401.22L1328.21,5401.22C1340.6,5401.22 1350.66,5398.34 1350.66,5394.78C1350.66,5391.22 1340.6,5388.34 1328.21,5388.34ZM654.859,5388.34L609.969,5388.34C597.582,5388.34 587.524,5391.22 587.524,5394.78C587.524,5398.34 597.582,5401.22 609.969,5401.22L654.859,5401.22C667.247,5401.22 677.304,5398.34 677.304,5394.78C677.304,5391.22 667.247,5388.34 654.859,5388.34ZM789.529,5388.34L744.639,5388.34C732.251,5388.34 722.194,5391.22 722.194,5394.78C722.194,5398.34 732.251,5401.22 744.639,5401.22L789.529,5401.22C801.917,5401.22 811.974,5398.34 811.974,5394.78C811.974,5391.22 801.917,5388.34 789.529,5388.34ZM924.199,5388.34L879.309,5388.34C866.921,5388.34 856.864,5391.22 856.864,5394.78C856.864,5398.34 866.921,5401.22 879.309,5401.22L924.199,5401.22C936.587,5401.22 946.644,5398.34 946.644,5394.78C946.644,5391.22 936.587,5388.34 924.199,5388.34ZM1058.87,5388.34L1013.98,5388.34C1001.59,5388.34 991.534,5391.22 991.534,5394.78C991.534,5398.34 1001.59,5401.22 1013.98,5401.22L1058.87,5401.22C1071.26,5401.22 1081.32,5398.34 1081.32,5394.78C1081.32,5391.22 1071.26,5388.34 1058.87,5388.34ZM1462.88,5388.34L1417.99,5388.34C1405.6,5388.34 1395.55,5391.22 1395.55,5394.78C1395.55,5398.34 1405.6,5401.22 1417.99,5401.22L1462.88,5401.22C1475.27,5401.22 1485.33,5398.34 1485.33,5394.78C1485.33,5391.22 1475.27,5388.34 1462.88,5388.34ZM1597.55,5388.34L1552.66,5388.34C1540.28,5388.34 1530.22,5391.22 1530.22,5394.78C1530.22,5398.34 1540.28,5401.22 1552.66,5401.22L1597.55,5401.22C1609.94,5401.22 1620,5398.34 1620,5394.78C1620,5391.22 1609.94,5388.34 1597.55,5388.34ZM1732.22,5388.34L1687.33,5388.34C1674.94,5388.34 1664.89,5391.22 1664.89,5394.78C1664.89,5398.34 1674.94,5401.22 1687.33,5401.22L1732.22,5401.22C1744.61,5401.22 1754.67,5398.34 1754.67,5394.78C1754.67,5391.22 1744.61,5388.34 1732.22,5388.34Z" style="fill:rgb(215,200,74);"/>
            </g>
        </g>
    </g>
</svg>
